<?xml version="1.0" encoding="UTF-8"?>
<svg version="1.1" xmlns="http://www.w3.org/2000/svg" xmlns:xlink="http://www.w3.org/1999/xlink">
  <symbol id="poll" viewBox="0 0 32 32" stroke-width="1">
    <path d="M4 17.42C4 22.92 8.28 27 13.8 27c5.2 0 9.47-3.92 9.93-9H13V7.48c-5.08.46-9 4.73-9 9.94zM25.58 16v1.42A11.8 11.8 0 1 1 13.8 5.62H15V16h10.58zM18 12.88h9A9.81 9.81 0 0 0 18 4v8.88zM16.9 2C23.43 2 29 7.28 29 13.8v.9H16V2h.9z"/>
  </symbol>
  <symbol id="embed" viewBox="0 0 32 32" stroke-width="1">
    <path d="M2 10v16.36c0 .9.9 1.64 2 1.64h24c1.1 0 2-.73 2-1.64V10H2zm2-6h24a4 4 0 0 1 4 4v18a4 4 0 0 1-4 4H4a4 4 0 0 1-4-4V8a4 4 0 0 1 4-4zM2.5 6a.5.5 0 0 0-.5.5V8h28V6.5a.5.5 0 0 0-.5-.5h-27zm9.04 16.44l-4.16-4 4.16-4.03 1.08 1.13-3.06 2.9 3.06 2.88-1.08 1.12zm3.35 3.4h-1.37l3.64-14.46h1.36l-3.63 14.46zm5.9-3.4l-1.1-1.16 3.05-2.88-3.05-2.89 1.1-1.1 4.13 4-4.14 4.03z"/>
  </symbol>
  <symbol id="header" viewBox="0 0 32 32" stroke-width="1">
    <path d="M7.33 18.78H2.85l-.92 2.67H0L4.2 10h1.82l4.16 11.45H8.23l-.9-2.67zm-3.93-1.6h3.39l-1.66-4.9h-.05l-1.68 4.9zM12.5 10h17c.28 0 .5.22.5.5v1a.5.5 0 0 1-.5.5h-17a.5.5 0 0 1-.5-.5v-1c0-.28.22-.5.5-.5zm0 6h9c.28 0 .5.22.5.5v1a.5.5 0 0 1-.5.5h-9a.5.5 0 0 1-.5-.5v-1c0-.28.22-.5.5-.5z"/>
  </symbol>
  <symbol id="pivot" viewBox="0 0 32 32" stroke-width="1">
    <path d="M11 0h14c.6 0 1 .45 1 1s-.4 1-1 1H11c-.6 0-1-.45-1-1s.4-1 1-1zm2 8a1 1 0 0 0 0 2h16a1 1 0 0 0 0-2H13zm0-2h16a3 3 0 0 1 0 6H13a3 3 0 0 1 0-6zm0 12a1 1 0 0 0 0 2h16a1 1 0 0 0 0-2H13zm0-2h16a3 3 0 0 1 0 6H13a3 3 0 0 1 0-6zm0 12a1 1 0 0 0 0 2h16a1 1 0 0 0 0-2H13zm0-2h16a3 3 0 0 1 0 6H13a3 3 0 0 1 0-6zM5 0a1 1 0 1 1 0 2H3a1 1 0 0 0-1 1v5h3c.56 0 1 .44 1 1s-.44 1-1 1H2v7a1 1 0 0 0 1 1h2a1 1 0 0 1 0 2H3a3 3 0 0 1-3-3V3a3 3 0 0 1 3-3h2z"/>
  </symbol>
  <symbol id="powerbi" viewBox="0 0 32 32" stroke-width="1">
    <path d="M4 15.96a1 1 0 1 1-2 0V3.25A3 3 0 0 1 5.82.36l22 6.26A3 3 0 0 1 30 9.51v17.37a3 3 0 0 1-3.83 2.88l-1.4-.4a1 1 0 0 1 .56-1.92l1.4.4a1 1 0 0 0 1.27-.96V9.5a1 1 0 0 0-.73-.96l-22-6.26A1 1 0 0 0 4 3.25v12.71zM21 12a1 1 0 0 1 1 1v18a1 1 0 0 1-2 0V13a1 1 0 0 1 1-1zm-6 2a1 1 0 0 1 1 1v14a1 1 0 0 1-2 0V15a1 1 0 0 1 1-1zm-6 4a1 1 0 0 1 1 1v8a1 1 0 0 1-2 0v-8a1 1 0 0 1 1-1zm-6 2a1 1 0 0 1 1 1v4a1 1 0 0 1-2 0v-4a1 1 0 0 1 1-1z"/>
  </symbol>
  <symbol id="table" viewBox="0 0 32 32" stroke-width="1">
    <path d="M2 4v22h28V4H2zm-.36-2h28.72c.9 0 1.64.73 1.64 1.64v22.98c0 .9-.73 1.64-1.64 1.64H1.64c-.9 0-1.64-.74-1.64-1.64V3.64C0 2.74.73 2 1.64 2zM15 24c-.6 0-1-.45-1-1s.4-1 1-1h6c.6 0 1 .45 1 1s-.4 1-1 1h-6zm0-4c-.6 0-1-.45-1-1s.4-1 1-1h2c.6 0 1 .45 1 1s-.4 1-1 1h-2zm0-4c-.6 0-1-.45-1-1s.4-1 1-1h6c.6 0 1 .45 1 1s-.4 1-1 1h-6zM5 24c-.6 0-1-.45-1-1s.4-1 1-1h2c.6 0 1 .45 1 1s-.4 1-1 1H5zm0-4c-.6 0-1-.45-1-1s.4-1 1-1h6c.6 0 1 .45 1 1s-.4 1-1 1H5zm0-4c-.6 0-1-.45-1-1s.4-1 1-1h2c.6 0 1 .45 1 1s-.4 1-1 1H5zm10-8c-.6 0-1-.45-1-1s.4-1 1-1h6c.6 0 1 .45 1 1s-.4 1-1 1h-6zM5 8c-.6 0-1-.45-1-1s.4-1 1-1h4c.6 0 1 .45 1 1s-.4 1-1 1H5z"/>
  </symbol>
  <symbol id="trendcard" viewBox="0 0 32 32" stroke-width="1">
    <path d="M4 6a2 2 0 0 0-2 2v18c0 1.1.9 2 2 2h24a2 2 0 0 0 2-2V8a2 2 0 0 0-2-2H4zm0-2h24a4 4 0 0 1 4 4v18a4 4 0 0 1-4 4H4a4 4 0 0 1-4-4V8a4 4 0 0 1 4-4zm14.64 9.24h2.1v1.48h-2.1v2.42h-1.62v-2.42H14.9v-1.48h2.12v-2.3h1.62v2.3zm5.52 3.57c.45 0 .82-.17 1.1-.5.28-.33.43-.81.43-1.43v-.42a1.9 1.9 0 0 1-1.54.73c-.8 0-1.42-.26-1.87-.77a3.07 3.07 0 0 1-.68-2.1c0-.86.27-1.56.8-2.13a2.72 2.72 0 0 1 2.06-.84c.87 0 1.58.3 2.12.9.55.6.82 1.44.82 2.52v2.02c0 1.03-.3 1.85-.91 2.44-.61.6-1.39.9-2.33.9a4.85 4.85 0 0 1-1.8-.36l.2-1.24a4.16 4.16 0 0 0 1.6.28zm.28-2.87c.28 0 .52-.05.74-.16.2-.1.38-.24.5-.42v-.79c0-.62-.1-1.1-.32-1.42a1.02 1.02 0 0 0-.9-.49c-.34 0-.62.16-.83.48-.22.32-.33.72-.33 1.18 0 .48.1.87.3 1.17.2.3.47.45.84.45z"/>
  </symbol>
  <symbol id="wiki" viewBox="0 0 32 32" stroke-width="1">
    <path d="M6 2a2 2 0 0 0-2 2v24c0 1.1.9 2 2 2h20a2 2 0 0 0 2-2V4a2 2 0 0 0-2-2H6zm0-2h20a4 4 0 0 1 4 4v24a4 4 0 0 1-4 4H6a4 4 0 0 1-4-4V4a4 4 0 0 1 4-4zm7.55 11.32h.03l1.22-5.85h1.67l-2 8.53H12.9l-1.56-5.63h-.04L9.73 14h-1.6L6.15 5.47h1.68l1.22 5.84h.04l1.6-5.84h1.26l1.6 5.85zM7 24a1 1 0 0 1 0-2h8a1 1 0 0 1 0 2H7zm0-4a1 1 0 0 1 0-2h14a1 1 0 0 1 0 2H7z"/>
  </symbol>
  <symbol id="link" viewBox="0 0 32 32" stroke-width="1">
    <path d="M28.5685 4.28383C27.1221 2.8374 25.2189 2 23.1635 2C21.108 2 19.2048 2.8374 17.7584 4.28383L13.1908 8.85148C11.7443 10.2979 10.9069 12.2011 10.9069 14.2565C10.9069 16.2359 11.6682 18.139 13.1908 19.6616C14.0282 20.499 15.0178 21.108 16.0075 21.4887C16.1597 21.5648 16.2359 21.5648 16.3881 21.5648C16.8449 21.5648 17.3778 21.2603 17.53 20.8035C17.7584 20.1945 17.4539 19.5093 16.8449 19.281C16.0836 19.0526 15.4746 18.5958 14.8656 18.0629C13.8759 17.0733 13.343 15.703 13.343 14.3327C13.343 12.9624 13.8759 11.5921 14.8656 10.6024L19.4332 6.03476C20.4229 5.0451 21.7932 4.51221 23.1635 4.51221C24.5338 4.51221 25.8279 5.0451 26.8937 6.03476C27.8834 6.94829 28.4163 8.31859 28.4163 9.76501C28.4163 11.1353 27.8834 12.5056 26.8937 13.4953L22.6306 17.7584C22.1738 18.2152 22.1738 18.9764 22.6306 19.4332C23.0874 19.89 23.8486 19.89 24.3054 19.4332L28.5685 15.1701C30.015 13.7236 30.7762 11.7443 30.7762 9.76501C30.8524 7.63344 30.015 5.73025 28.5685 4.28383Z" />
    <path d="M16.8449 11.2874C16.2359 11.0591 15.5507 11.3636 15.3223 11.9726C15.0939 12.5816 15.3985 13.2668 16.0075 13.4951C16.7688 13.7235 17.3778 14.1803 17.9868 14.7132C20.0422 16.7686 20.0422 20.1182 17.9868 22.1737L13.4191 26.7413C11.3637 28.7968 8.01408 28.7968 5.95863 26.7413C3.90319 24.6859 3.90319 21.3363 5.95863 19.2808L10.2218 15.0177C10.6785 14.5609 10.6785 13.7996 10.2218 13.3429C9.76501 12.8861 9.00374 12.8861 8.54697 13.3429L4.28383 17.606C2.8374 19.0524 2 20.9556 2 23.0111C2 25.0665 2.8374 26.9697 4.28383 28.4161C5.73025 29.8626 7.63344 30.7 9.68889 30.7C11.7443 30.7 13.6475 29.8626 15.0939 28.4161L19.6616 23.8485C21.108 22.4021 21.9454 20.4989 21.9454 18.4434C21.9454 16.388 21.108 14.4848 19.6616 13.0384C18.9003 12.2771 17.9107 11.6681 16.8449 11.2874Z" />
  </symbol>
  <symbol id="kpi" viewBox="0 0 32 32" stroke-width="1">
    <path fill-rule="evenodd" clip-rule="evenodd" d="M26 3H5C3.34314 3 2 4.34314 2 6V26C2 27.6569 3.34314 29 5 29H13.05C13.0172 28.8384 13 28.6712 13 28.5C13 28.0515 13.1181 27.6305 13.3249 27.2666L9.37088 21.9945C8.60291 21.929 8 21.2849 8 20.5C8 19.6716 8.67157 19 9.5 19C10.3284 19 11 19.6716 11 20.5C11 20.6009 10.99 20.6994 10.9711 20.7947L14.9249 26.0665C15.1095 26.023 15.3021 26 15.5 26C16.8807 26 18 27.1193 18 28.5C18 28.6712 17.9828 28.8384 17.95 29H26C27.6569 29 29 27.6569 29 26V6C29 4.34314 27.6569 3 26 3ZM15.5 31H5C2.23857 31 0 28.7614 0 26V6C0 3.23857 2.23857 1 5 1H26C28.7614 1 31 3.23857 31 6V26C31 28.7614 28.7614 31 26 31H15.5ZM12.8027 14H11.1094V7.47266L9.08789 8.09961V6.72266L12.6211 5.45703H12.8027V14ZM21.3809 6.41797L18.082 14H16.2949L19.5996 6.83984H15.3574V5.46875H21.3809V6.41797ZM5.5 26C6.32843 26 7 25.3284 7 24.5C7 23.6716 6.32843 23 5.5 23C4.67157 23 4 23.6716 4 24.5C4 25.3284 4.67157 26 5.5 26ZM27 24.5C27 25.3284 26.3284 26 25.5 26C24.6716 26 24 25.3284 24 24.5C24 23.6716 24.6716 23 25.5 23C26.3284 23 27 23.6716 27 24.5ZM21.5 22C22.3284 22 23 21.3284 23 20.5C23 19.6716 22.3284 19 21.5 19C20.6716 19 20 19.6716 20 20.5C20 21.3284 20.6716 22 21.5 22ZM17 19.5C17 20.3284 16.3284 21 15.5 21C14.6716 21 14 20.3284 14 19.5C14 18.6716 14.6716 18 15.5 18C16.3284 18 17 18.6716 17 19.5Z" />
  </symbol>
</svg>
