<?xml version="1.0" encoding="UTF-8"?>
<svg version="1.1" xmlns="http://www.w3.org/2000/svg" xmlns:xlink="http://www.w3.org/1999/xlink">
	<symbol id="spinner" stroke-width="1" viewBox="0 0 16 16" fill="none">
		<g clip-path="url(#clip0)">
		<path d="M13.6569 13.6569C12.7266 14.5871 11.5812 15.2736 10.3223 15.6555C9.06332 16.0374 7.72961 16.1029 6.43928 15.8463C5.14895 15.5896 3.94183 15.0187 2.92486 14.1841C1.90788 13.3495 1.11243 12.2769 0.608966 11.0615C0.105504 9.846 -0.0904279 8.52514 0.0385242 7.21586C0.167476 5.90659 0.617333 4.64933 1.34825 3.55544C2.07916 2.46155 3.06857 1.5648 4.22883 0.94463C5.38909 0.324457 6.68439 -1.56885e-08 8 0V1.46547C6.92539 1.46547 5.86737 1.73049 4.91964 2.23706C3.97192 2.74362 3.16376 3.4761 2.56674 4.36961C1.96971 5.26311 1.60226 6.29007 1.49693 7.3595C1.3916 8.42894 1.55164 9.50785 1.96288 10.5007C2.37412 11.4935 3.02385 12.3695 3.85454 13.0513C4.68522 13.733 5.67122 14.1993 6.72518 14.409C7.77914 14.6186 8.86854 14.5651 9.89688 14.2532C10.9252 13.9412 11.8608 13.3805 12.6206 12.6206L13.6569 13.6569Z" fill="#333333"/>
		</g>
		<defs>
			<clipPath id="clip0">
				<rect width="16" height="16" fill="white"/>
			</clipPath>
		</defs>
	</symbol>
	<symbol id="ellipsis" width="17" height="17" viewBox="0 0 17 17">
		<g clip-path="url(#clip0)">
			<path d="M0.0423661 9.05093C0.046508 8.3882 0.587113 7.85431 1.24984 7.85845V7.85845C1.91257 7.86259 2.44646 8.4032 2.44232 9.06593V9.06593C2.43818 9.72866 1.89757 10.2625 1.23484 10.2584V10.2584C0.572114 10.2543 0.0382242 9.71366 0.0423661 9.05093V9.05093Z"/>
			<path d="M6.99909 9.09347C7.00323 8.43074 7.54384 7.89685 8.20657 7.90099V7.90099C8.8693 7.90514 9.40319 8.44574 9.39905 9.10847V9.10847C9.3949 9.7712 8.8543 10.3051 8.19157 10.3009V10.3009C7.52884 10.2968 6.99495 9.7562 6.99909 9.09347V9.09347Z"/>
			<path d="M13.6423 9.13717C13.6465 8.47444 14.1871 7.94055 14.8498 7.94469V7.94469C15.5125 7.94884 16.0464 8.48944 16.0423 9.15217V9.15217C16.0382 9.8149 15.4975 10.3488 14.8348 10.3446V10.3446C14.1721 10.3405 13.6382 9.7999 13.6423 9.13717V9.13717Z"/>
		</g>
		<defs>
			<clipPath id="clip0">
				<rect width="16" height="16" fill="white" transform="translate(0.0498657 0.949829)"/>
			</clipPath>
		</defs>
	</symbol>
	<symbol id="checkmark" width="20" height="20" viewBox="0 0 20 20">
		<path d="M10 0.375C4.6375 0.375 0.375 4.6375 0.375 10C0.375 15.3625 4.6375 19.625 10 19.625C15.3625 19.625 19.625 15.3625 19.625 10C19.625 4.6375 15.3625 0.375 10 0.375ZM10 1.75C14.5375 1.75 18.25 5.4625 18.25 10C18.25 14.5375 14.5375 18.25 10 18.25C5.4625 18.25 1.75 14.5375 1.75 10C1.75 5.4625 5.4625 1.75 10 1.75ZM13.575 6.7L8.625 11.7875L6.425 9.45L5.325 10.55L8.625 13.7125L14.675 7.6625L13.575 6.7Z"/>
	</symbol>
	<symbol id="warnsign" width="22" height="19" viewBox="0 0 22 19">
		<path fill-rule="evenodd" clip-rule="evenodd" d="M19.0428 15.8464C19.3047 16.3047 18.9738 16.875 18.4459 16.875L3.55403 16.875C3.02615 16.875 2.69521 16.3047 2.95711 15.8464L10.4031 2.816C10.667 2.35413 11.333 2.35413 11.5969 2.816L19.0428 15.8464ZM9.80614 1.0892C10.334 0.165456 11.666 0.165457 12.1938 1.0892L20.8244 16.1928C21.3482 17.1095 20.6864 18.25 19.6306 18.25H2.36934C1.31359 18.25 0.651705 17.1095 1.17551 16.1928L9.80614 1.0892ZM11.4568 5.87499H10.543C10.4018 5.87499 10.2669 5.96048 10.1712 6.11077C10.0755 6.26105 10.0276 6.46241 10.0391 6.66605L10.4344 12.2501C10.4516 12.553 10.6266 12.7862 10.8368 12.7862H11.1631C11.3732 12.7862 11.5482 12.553 11.5655 12.2501L11.9607 6.66606C11.9723 6.46241 11.9244 6.26105 11.8287 6.11077C11.733 5.96048 11.5981 5.87499 11.4568 5.87499ZM10.9999 16.0503C11.5166 16.0503 11.9355 15.6193 11.9355 15.0877C11.9355 14.556 11.5166 14.125 10.9999 14.125C10.4832 14.125 10.0644 14.556 10.0644 15.0877C10.0644 15.6193 10.4832 16.0503 10.9999 16.0503Z"/>
	</symbol>
</svg>
